<svg width="240" height="8" viewBox="0 0 240 8" fill="none" xmlns="http://www.w3.org/2000/svg">
<path d="M154.72 7.04243C153.644 7.73702 152.274 7.27444 151.799 6.31181C151.614 5.93713 151.636 5.50625 151.816 5.13878C152.107 4.54939 153.149 4.49318 153.411 5.10852C153.494 5.30306 154.381 5.27568 154.285 5.04655C154.146 4.72087 153.854 4.51768 153.496 4.41104H156.011C156.122 5.39529 155.69 6.41268 154.72 7.04243ZM144.991 2.75814C146.957 1.87765 149.11 0.93952 151.367 0.773798C152.992 1.11965 154.357 1.7249 155.365 2.92531C155.569 3.16741 155.727 3.43112 155.836 3.7078H142.918C143.607 3.38789 144.296 3.06941 144.991 2.75814ZM131.964 7.48051C131.275 7.61741 130.586 7.67217 129.896 7.67361C132.883 7.12601 135.669 5.6518 138.306 4.41104H140.09C137.5 5.64604 134.853 6.90408 131.964 7.48051ZM122.094 5.27712C121.847 5.01197 121.659 4.71799 121.529 4.41104H134.249C133.608 4.70646 132.968 5.00332 132.322 5.29153C130.366 6.16626 128.214 7.07269 125.971 7.23697C124.434 6.9185 123.132 6.38818 122.094 5.27712ZM127.956 7.55256C127.675 7.51798 127.394 7.47763 127.113 7.43584C130.072 7.00928 132.801 5.61866 135.393 4.41104H137.013C136.316 4.73384 135.619 5.0552 134.917 5.37223C132.781 6.33919 130.422 7.38828 127.962 7.55112C127.962 7.55112 127.959 7.55112 127.956 7.55256ZM145.593 0.435147C146.332 0.302569 147.085 0.272307 147.84 0.301128C144.717 0.716155 141.815 2.19325 139.096 3.44553C138.906 3.53344 138.72 3.6199 138.532 3.7078H136.886C139.653 2.38635 142.481 0.995722 145.593 0.435147ZM141.575 3.7078H139.793C142.862 2.22927 146.277 0.469733 149.809 0.504318C149.827 0.504318 149.835 0.502877 149.851 0.501436C149.926 0.512965 150 0.525934 150.075 0.537463C147.106 0.971223 144.387 2.40364 141.787 3.60837C141.717 3.64007 141.646 3.67466 141.575 3.7078ZM117.625 4.98026C116.679 6.24552 115.094 6.86374 113.435 7.20959C113.411 7.21535 113.387 7.21968 113.363 7.224C110.883 7.00928 108.511 5.88525 106.364 4.90245C106.008 4.73961 105.653 4.57533 105.298 4.41104H117.962C117.869 4.61135 117.758 4.80445 117.625 4.98026ZM107.922 7.58859C104.845 7.15915 101.99 5.72674 99.2613 4.41104H101.447C104.122 5.65468 106.938 7.13033 109.973 7.67794C109.282 7.70388 108.593 7.68226 107.922 7.58859ZM83.7964 3.7078C83.9361 3.36483 84.1288 3.04059 84.3665 2.75814C85.3413 1.59809 86.7978 1.08074 88.3588 0.753623C88.3748 0.755064 88.3893 0.760828 88.4053 0.760828C90.9459 0.927991 93.3242 2.07076 95.5195 3.07662C95.9756 3.28557 96.4301 3.49597 96.8862 3.7078H83.7964ZM86.1828 5.0869C86.5023 4.33178 87.6987 4.80734 87.8834 5.43276C87.9814 5.76564 87.8545 6.14609 87.7036 6.45159C87.1977 7.47475 85.6351 7.55833 84.6828 6.94155C83.7273 6.32334 83.4447 5.35062 83.5988 4.41104H86.1908C85.7716 4.52777 85.4167 4.74393 85.2786 5.06817C85.2128 5.21948 86.0816 5.32468 86.1828 5.0869ZM89.9069 0.482703C89.9647 0.495672 90.0193 0.504318 90.061 0.504318C92.3414 0.481261 94.6668 1.34878 96.6485 2.21774C97.7501 2.7005 98.8405 3.20343 99.9293 3.7078H97.779C95.1486 2.48434 92.3816 1.03031 89.3817 0.563402C89.5568 0.534581 89.7318 0.508642 89.9069 0.482703ZM94.2573 0.475497C97.2587 1.0159 100.048 2.40941 102.738 3.7078H100.87C100.578 3.57234 100.287 3.43544 99.9952 3.30142C97.3792 2.09814 94.5977 0.739212 91.6091 0.318421C92.4908 0.278071 93.3756 0.31698 94.2573 0.475497ZM111.383 7.55977C111.363 7.55689 111.344 7.55112 111.323 7.54968C108.918 7.39116 106.591 6.32478 104.505 5.38232C103.796 5.0624 103.093 4.73672 102.39 4.41104H104.219C106.783 5.59848 109.454 6.95308 112.367 7.41134C112.041 7.4661 111.714 7.51798 111.383 7.55977ZM239.176 3.90523C238.667 3.89803 178.751 3.7078 163.199 3.7078H156.732C156.284 2.64142 155.195 1.75228 154.039 1.18018C152.542 0.440911 150.533 0.237721 148.841 0.0691171C146.825 -0.131191 144.941 0.115231 143.026 0.661394C140.992 1.23926 139.117 2.16587 137.241 3.02618C136.751 3.25243 136.263 3.48012 135.773 3.7078H121.33C121.198 2.75526 121.577 1.76669 122.468 1.09804C123.48 0.338596 125.012 0.538904 125.542 1.61106C125.707 1.94538 125.703 2.30421 125.601 2.64862C125.446 3.17317 124.27 3.75824 123.926 2.95125C123.838 2.74229 122.969 2.67456 123.054 2.87487C123.517 3.96431 125.728 3.88506 126.372 3.01898C126.767 2.48722 126.518 1.74075 126.149 1.25655C125.723 0.697421 124.853 0.43947 124.118 0.315539C122.335 0.0186796 120.867 1.1355 120.488 2.53334C120.379 2.93828 120.377 3.33169 120.456 3.7078H119.114C119.224 2.99304 119.065 2.25521 118.564 1.57935C117.689 0.39768 115.9 0.0114747 114.405 0.498554C112.865 1.00004 112.481 2.83308 114.021 3.5075C114.766 3.83318 116.205 3.75248 116.528 2.99304C116.607 2.80858 115.738 2.61404 115.645 2.83308C115.41 3.38789 114.479 3.5075 114.057 2.94116C113.828 2.63133 113.89 2.23215 113.978 1.89783C114.236 0.919345 115.733 0.292482 116.814 0.805501C118.057 1.3949 118.425 2.59963 118.195 3.7078H103.775C102.907 3.30431 102.036 2.90369 101.166 2.50596C99.1858 1.60385 97.1977 0.757946 95.004 0.280953C93.2327 -0.105252 91.4887 -0.0404038 89.7061 0.185843C89.6901 0.185843 89.6756 0.184402 89.6595 0.184402C89.5503 0.185843 89.4877 0.197372 89.4588 0.216106C89.4315 0.220429 89.4074 0.223311 89.3817 0.226193C88.9481 0.285277 88.5194 0.353007 88.0954 0.433706C88.052 0.436588 88.0199 0.443794 87.9942 0.45244C86.634 0.719037 85.3509 1.13695 84.2749 1.9425C83.6133 2.43967 83.1235 3.04924 82.8649 3.7078H76.801C61.2494 3.7078 1.33291 3.89803 0.823832 3.90523C-0.274611 3.91964 -0.274611 4.192 0.823832 4.21362C1.29597 4.22226 61.2928 4.41104 76.801 4.41104H82.6867C82.6064 5.04079 82.7365 5.69359 83.1315 6.31901C83.9505 7.61453 85.8311 7.96183 87.3647 7.46322C88.8438 6.9819 89.4363 5.15896 87.8625 4.47157C87.8111 4.44851 87.7549 4.42834 87.6971 4.41104H98.4118C99.1794 4.76555 99.947 5.12149 100.718 5.47311C102.643 6.34927 104.585 7.20671 106.718 7.67073C108.674 8.09585 110.517 8.0627 112.497 7.79034C114.354 7.53527 116.139 7.15195 117.569 6.0798C118.19 5.61433 118.653 5.03502 118.911 4.41104C119.618 4.41104 120 4.41104 120 4.41104C120 4.41104 120.244 4.41104 120.7 4.41104C121.168 5.34629 122.12 6.13456 123.138 6.68504C124.59 7.46898 126.536 7.69235 128.209 7.89121C130.239 8.13187 132.11 7.96903 134.063 7.44448C136.183 6.87526 138.128 5.91551 140.072 5.0235C140.514 4.82031 140.954 4.61567 141.396 4.41104H152.06C151.585 4.52921 151.164 4.74825 150.949 5.03791C150.554 5.56966 150.822 6.3219 151.19 6.80321C151.636 7.39116 152.616 7.62462 153.387 7.69235C155.124 7.84654 156.494 6.7398 156.86 5.38809C156.95 5.05376 156.97 4.72664 156.928 4.41104H163.199C178.707 4.41104 238.704 4.22226 239.176 4.21362C240.275 4.192 240.275 3.91964 239.176 3.90523Z" fill="#9F7C44"/>
</svg>
